<svg xmlns="http://www.w3.org/2000/svg" viewBox="0 0 100 100" role="img" aria-label="RimeDeck">
  <rect width="100" height="100" rx="16" fill="#0179db"/>
  <path fill="#ffffff" d="M21.5,37.9 L22.5,42.0 L42.8,53.7 L66.8,36.3 L61.3,28.7 L69.3,29.3 L70.1,50.2 L58.8,58.6 L58.8,68.0 L66.8,79.5 L78.7,79.5 L67.0,62.7 L79.1,52.9 L78.7,19.9 L46.5,19.9 Z"/>
  <path fill="#ffffff" d="M63.5,34.6 L42.4,49.8 L25.0,39.6 L46.9,23.8 Z"/>
  <path fill="#ffffff" d="M67.4,40.8 L42.4,57.6 L21.1,45.1 L21.1,54.1 L42.4,66.6 L67.0,49.0 Z"/>
  <path fill="#ffffff" d="M20.9,58.8 L21.3,67.4 L41.8,79.5 L55.9,69.9 L55.5,61.1 L42.2,70.7 Z"/>
</svg>